<svg width="27" height="34" viewBox="0 0 27 34" fill="none" xmlns="http://www.w3.org/2000/svg">
<path d="M13.6425 0.0157537L13.4999 0L-6.10352e-05 1.40733V26.0129L13.4999 34L26.9999 26.0129V1.40733L13.6425 0.0157537ZM25.2343 25.0151L13.4999 31.9573L1.76555 25.0151V14.9293L13.4507 21.8451L13.47 23.0984L5.45345 18.3548L5.44289 19.5801L13.4894 24.3885L13.5087 25.675L5.46402 20.9174L5.45345 22.1427L13.4999 26.9511L21.6239 22.1182V20.8929V16.909L25.2431 14.7595L25.2343 25.0151ZM25.2343 13.4519L22.0147 15.3319L20.5325 16.2071L13.4665 12.0201L13.4559 13.2454L19.4956 16.818L19.4428 16.8495L19.3126 16.9247L18.4535 17.4166L13.4665 14.4689L13.4559 15.6942L17.392 18.0222L16.4591 18.6314L16.4379 18.6436L13.4665 16.902L13.4559 18.1273L15.4029 19.2615L13.4154 20.4483L1.79724 13.5762L13.4348 6.61831L25.2343 13.4519ZM25.2343 12.2266L13.4401 5.31075L1.76555 12.2196V2.9897L13.4999 1.76442L25.2343 2.9897V12.2266Z" fill="#666666"/>
</svg>
